<svg width="79" height="76" viewBox="0 0 79 76" fill="none" xmlns="http://www.w3.org/2000/svg">
<g id="Group 5336">
<g id="Group 5339">
<path id="Vector" d="M13.9585 0H64.3448C71.984 0 78.1605 6.16978 78.1605 13.8006V62.1838C78.1605 69.8146 71.984 75.9844 64.3448 75.9844H13.9585C6.31933 75.9844 0.142822 69.8146 0.142822 62.1838V13.8006C0.142822 6.16978 6.31933 0 13.9585 0Z" fill="#00005B"/>
<g id="Group">
<path id="Vector_2" d="M31.4801 45.4608H19.3874L16.9167 53.1241C16.8518 53.4162 16.5916 53.611 16.2991 53.5786H10.1879C9.83023 53.5786 9.73286 53.3837 9.83023 52.9941L20.2977 23.0224C20.3951 22.6976 20.4927 22.4055 20.6229 22.0158C20.753 21.3341 20.8179 20.6196 20.8179 19.9051C20.7855 19.7427 20.9153 19.5803 21.0779 19.5479H29.4972C29.7247 19.5479 29.8873 19.6451 29.9198 19.8075L41.785 52.9289C41.8827 53.2862 41.785 53.4486 41.4598 53.4486H34.6658C34.4383 53.481 34.2108 53.3186 34.1455 53.0913L31.4798 45.2981V45.4605L31.4801 45.4608ZM21.2729 38.9989H29.5297C29.3346 38.3172 29.0747 37.5051 28.782 36.6609C28.4893 35.7844 28.1968 34.8426 27.9044 33.8685C27.5793 32.8619 27.2868 31.8877 26.9617 30.8811C26.6365 29.8746 26.3441 28.9328 26.0841 27.9911C25.8242 27.0818 25.5967 26.2376 25.3689 25.4583H25.3039C25.0112 26.8545 24.6539 28.2508 24.1986 29.6473C23.7111 31.206 23.2234 32.8295 22.7031 34.4533C22.2806 36.1092 21.7604 37.6354 21.2729 38.9992V38.9989ZM60.9318 42.5383H50.6269C50.7571 43.5449 51.0819 44.5515 51.6346 45.4284C52.2197 46.305 53.0324 46.987 54.0076 47.3767C55.308 47.9288 56.7382 48.2209 58.1684 48.1884C59.3062 48.156 60.444 48.0585 61.5491 47.8312C62.5568 47.7012 63.532 47.4415 64.4423 47.0843C64.6049 46.9543 64.7023 47.0195 64.7023 47.344V52.3123C64.7023 52.4423 64.6698 52.572 64.6373 52.702C64.5724 52.7996 64.5072 52.8644 64.4098 52.9292C63.3697 53.3838 62.2968 53.7086 61.159 53.9034C59.6311 54.1955 58.1032 54.3255 56.5429 54.2931C54.0722 54.2931 51.9919 53.9034 50.3014 53.1565C48.7086 52.4744 47.3109 51.403 46.2055 50.0716C45.1654 48.8054 44.4177 47.3764 43.9627 45.8177C43.5077 44.2915 43.2798 42.7004 43.2798 41.0769C43.2798 39.3234 43.5398 37.6024 44.0925 35.9137C44.6127 34.2902 45.4253 32.7964 46.5304 31.465C47.6033 30.166 48.9358 29.127 50.4637 28.3801C51.9916 27.6332 53.8119 27.3735 55.8925 27.3735C57.6154 27.3411 59.3384 27.6659 60.9312 28.3801C62.264 28.9646 63.4343 29.8415 64.3446 30.9778C65.1897 32.0819 65.8725 33.3158 66.2951 34.6796C66.7176 35.9786 66.9127 37.3097 66.9127 38.6411C66.9127 39.4204 66.8802 40.1025 66.8477 40.7194C66.7828 41.3363 66.7501 41.7911 66.7176 42.0832C66.6852 42.3104 66.4901 42.5053 66.2626 42.5053C66.0676 42.5053 65.7099 42.5377 65.1897 42.5701C64.6695 42.635 64.0519 42.6677 63.3042 42.6677C62.5565 42.6677 61.7763 42.5377 60.9312 42.5377L60.9318 42.5383ZM50.6269 37.7975H57.4859C58.331 37.7975 58.9489 37.7975 59.3387 37.7651C59.5986 37.7327 59.8589 37.6675 60.0864 37.5054V37.1806C60.0864 36.7585 60.0215 36.3689 59.8914 35.9792C59.3062 34.1609 57.5833 32.9267 55.6653 32.9919C53.8775 32.8943 52.187 33.836 51.3419 35.4598C50.9518 36.2068 50.7243 36.9861 50.6266 37.7978L50.6269 37.7975Z" fill="#9999FF"/>
</g>
</g>
</g>
</svg>
