<?xml version="1.0" encoding="utf-8"?>
<!-- Generator: Adobe Illustrator 26.3.1, SVG Export Plug-In . SVG Version: 6.00 Build 0)  -->
<svg version="1.1" id="Calque_1" xmlns:serif="http://www.serif.com/"
	 xmlns="http://www.w3.org/2000/svg" xmlns:xlink="http://www.w3.org/1999/xlink" x="0px" y="0px" viewBox="0 0 513.8 103.7"
	 style="enable-background:new 0 0 513.8 103.7;" xml:space="preserve">
<style type="text/css">
	.st0{fill-rule:evenodd;clip-rule:evenodd;fill:#1F69EC;}
	.st1{fill-rule:evenodd;clip-rule:evenodd;fill:#FFFFFF;}
	.st2{fill-rule:evenodd;clip-rule:evenodd;fill:#9D9D9D;}
	.st3{fill-rule:evenodd;clip-rule:evenodd;fill:#6F6F6F;}
</style>
<g transform="matrix(-0.527416,0,0,0.512493,110.07,-28.1457)">
	<path class="st0" d="M189.2,235.4c26-29.2,25.9-129.6,0-158.6s-130.4-29.3-156.4,0c-26,29.2-25.9,129.6,0,158.6
		C58.8,264.3,163.2,264.6,189.2,235.4z"/>
</g>
<g transform="matrix(0.494501,0,0,0.494501,0.194251,2.04229)">
	<path class="st1" d="M107.2,34.5c13.3,0.1,26.6,4.3,37.5,11.9c6.7,4.4,8.8,13,2.7,19.6c-1.1,1.1-2.2,2.2-3.3,3.3
		c-2.2,2.2-5.5,5.5-5.5,5.5c-4.5,4.1-10.8,4.5-16.2,1c-13.7-9-32.8-4.2-41.3,11.1c-8.8,15.8-0.3,35.4,15.6,41.3
		c8.7,3.2,18.5,2.2,26.6-3.2c2.2-1.5,9.6-4,15.2,1.6c2.7,2.6,5.4,5.3,7.8,7.8c3,2.9,4.2,5.4,4.5,8.7c0.6,6.7-3.2,11-12.1,15.6
		c-23.7,13-53.4,10.9-75.7-8.5C40.5,131,33.9,96.4,48.3,69.9c11.8-21.6,33.4-35,57.3-35.3C106.1,34.5,106.7,34.5,107.2,34.5z"/>
</g>
<g transform="matrix(1,0,0,1,0,2)">
	<path class="st2" d="M412.2,59.6c0.5,0.5,0.8,1.3,0.7,2.1c-0.1,0.8-0.5,1.5-1.1,1.9c-2.8,1.9-6.1,3-9.7,3
		c-9.5,0-17.2-7.7-17.2-17.2s7.7-17.2,17.2-17.2c3.6,0,6.9,1.1,9.7,3c0.6,0.4,1.1,1.1,1.1,1.9c0.1,0.8-0.2,1.5-0.7,2.1
		c-0.6,0.6-1.3,1.3-1.9,1.9c-0.9,0.9-2.2,1-3.2,0.4c-1.5-0.9-3.2-1.4-5-1.4c-5.2,0-9.5,4.3-9.5,9.5s4.3,9.5,9.5,9.5
		c1.8,0,3.6-0.5,5-1.4c1-0.6,2.3-0.5,3.2,0.4C410.9,58.3,411.6,59,412.2,59.6z M438.7,32c9.5,0,17.2,7.7,17.2,17.2
		s-7.7,17.2-17.2,17.2s-17.2-7.7-17.2-17.2C421.4,39.8,429.2,32,438.7,32z M372.4,58.8c2.1,0,3.9,1.7,3.9,3.9c0,2.1-1.7,3.9-3.9,3.9
		c-2.1,0-3.9-1.7-3.9-3.9C368.5,60.5,370.2,58.8,372.4,58.8z M487.9,34.4c2.6-1.5,5.5-2.3,8.7-2.3c9.4,0,17.1,7.6,17.2,17l0,0V64
		c0,1.4-1.2,2.6-2.6,2.6h-2.5c-1.4,0-2.6-1.2-2.6-2.6V49.4c0-5.2-4.3-9.5-9.5-9.5c-1.8,0-3.4,0.5-4.8,1.3V64c0,1.4-1.2,2.6-2.6,2.6
		h-2.5c-1.4,0-2.6-1.2-2.6-2.6V41.1c-1.4-0.8-3-1.3-4.8-1.3c-5.2,0-9.5,4.3-9.5,9.5l0,0l0,0v14.6c0,1.4-1.2,2.6-2.6,2.6h-2.5
		c-1.4,0-2.6-1.2-2.6-2.6V34.6c0-0.7,0.3-1.3,0.7-1.8c0.5-0.5,1.1-0.7,1.8-0.7h2.7c0.7,0,1.3,0.3,1.8,0.7c0.5,0.5,0.7,1.1,0.7,1.8
		v0.3c2.7-1.8,6-2.8,9.5-2.8C482.4,32,485.4,32.9,487.9,34.4z M438.7,39.8c5.2,0,9.5,4.3,9.5,9.5s-4.3,9.5-9.5,9.5s-9.5-4.3-9.5-9.5
		S433.4,39.8,438.7,39.8z"/>
</g>
<g transform="matrix(1,0,0,1,0,2)">
	<path class="st3" d="M329.6,49.5V34.7c0-0.7,0.3-1.4,0.8-1.9s1.2-0.8,1.9-0.8h2.5c0.7,0,1.4,0.3,1.9,0.8s0.8,1.2,0.8,1.9v29.2
		c0,1.4-1.2,2.6-2.6,2.6h-2.5c-1.4,0-2.6-1.2-2.6-2.6v-0.2c-2.7,1.8-6,2.8-9.5,2.8c-9.5,0-17.2-7.7-17.2-17.2V34.7
		c0-0.7,0.3-1.4,0.8-1.9s1.2-0.8,1.9-0.8h2.5c0.7,0,1.4,0.3,1.9,0.8s0.8,1.2,0.8,1.9v14.6l0,0c0,5.2,4.3,9.5,9.5,9.5
		C325.3,58.8,329.5,54.7,329.6,49.5z M167.6,59.6c0.5,0.5,0.8,1.3,0.7,2.1s-0.5,1.5-1.1,1.9c-2.8,1.9-6.1,3-9.7,3
		c-9.5,0-17.2-7.7-17.2-17.2s7.7-17.2,17.2-17.2c3.6,0,6.9,1.1,9.7,3c0.6,0.4,1.1,1.1,1.1,1.9c0.1,0.8-0.2,1.5-0.7,2.1
		c-0.6,0.6-1.3,1.3-1.9,1.9c-0.9,0.9-2.2,1-3.2,0.4c-1.5-0.9-3.2-1.4-5-1.4c-5.2,0-9.5,4.3-9.5,9.5s4.3,9.5,9.5,9.5
		c1.8,0,3.6-0.5,5-1.4c1-0.6,2.3-0.5,3.2,0.4C166.3,58.3,167,59,167.6,59.6z M344.9,34.7c0-1.4,1.2-2.6,2.6-2.6h2.5
		c1.4,0,2.6,1.2,2.6,2.6v0.2c2.7-1.8,6-2.8,9.5-2.8c3.6,0,7,1.1,9.8,3.1c0.6,0.4,1.1,1.1,1.1,1.9c0.1,0.8-0.2,1.5-0.8,2.1
		c-0.6,0.6-1.2,1.2-1.8,1.8c-0.9,0.9-2.2,1-3.3,0.4c-1.5-0.9-3.2-1.5-5.1-1.5c-5.2,0-9.4,4.1-9.5,9.3v0.5c0.1,2.5,0,9.3,0,9.3v5.1
		c0,1.5-1.2,2.6-2.6,2.6h-2.5c-1.4,0-2.6-1.2-2.6-2.6L344.9,34.7L344.9,34.7z M295.3,50.5c0,0.7-0.3,1.4-0.8,1.9s-1.2,0.8-1.9,0.8
		h-23.3c1.5,3.3,4.8,5.6,8.7,5.6c1.8,0,3.6-0.5,5-1.4c1-0.6,2.4-0.5,3.2,0.4c0.6,0.6,1.2,1.2,1.8,1.8c0.6,0.6,0.8,1.3,0.8,2.1
		c-0.1,0.8-0.5,1.5-1.2,1.9c-2.8,1.9-6.1,3-9.7,3c-9.5,0-17.2-7.7-17.2-17.2s7.7-17.2,17.2-17.2c8.2,0,15,5.7,16.8,13.4
		c0.3,1.2,0.4,2.4,0.4,3.6v1.3H295.3z M194,32c9.5,0,17.2,7.7,17.2,17.2s-7.7,17.2-17.2,17.2s-17.2-7.7-17.2-17.2
		C176.8,39.8,184.5,32,194,32z M253.3,49.3c0,9.5-7.7,17.2-17.2,17.2s-17.2-7.7-17.2-17.2s7.7-17.2,17.2-17.2c3.5,0,6.8,1,9.5,2.8
		v-9.7c0-1.4,1.2-2.6,2.6-2.6h2.5c1.4,0,2.6,1.2,2.6,2.6V49.3z M194,39.8c5.2,0,9.5,4.3,9.5,9.5s-4.3,9.5-9.5,9.5s-9.5-4.3-9.5-9.5
		S188.8,39.8,194,39.8z M245.5,49.1c-0.1-5.1-4.3-9.3-9.5-9.3s-9.5,4.3-9.5,9.5s4.3,9.5,9.5,9.5s9.5-4.2,9.5-9.5l0,0V49.1z
		 M286.7,45.4c-1.5-3.3-4.8-5.6-8.7-5.6c-3.9,0-7.2,2.3-8.7,5.6H286.7z"/>
</g>
</svg>
