<svg width="79" height="76" viewBox="0 0 79 76" fill="none" xmlns="http://www.w3.org/2000/svg">
<g id="Media encoder" clip-path="url(#clip0_927_7505)">
<path id="Vector" d="M14.8034 0H65.1453C72.7778 0 78.9487 6.17094 78.9487 13.8034V62.1966C78.9487 69.8291 72.7778 76 65.1453 76H14.8034C7.17094 76 1 69.8291 1 62.1966V13.8034C1 6.17094 7.17094 0 14.8034 0Z" fill="#00005B"/>
<path id="Vector_2" d="M11.9779 19.7791C12.0103 19.5842 12.1727 19.4543 12.3676 19.4543H21.4941C21.7539 19.4219 21.9813 19.5842 22.0462 19.8116C22.2736 20.721 22.5659 21.7928 22.8907 23.0919C23.2155 24.3586 23.5727 25.7552 23.9625 27.3142C24.3522 28.8407 24.742 30.4321 25.1317 32.0236C25.5215 33.615 25.9112 35.174 26.3009 36.7005C26.6907 38.227 27.0155 39.6236 27.2753 40.8902C27.5351 42.1569 27.7625 43.2287 27.9249 44.0407H27.9898C28.1197 43.2937 28.3471 42.3193 28.6719 41.1176C28.9967 39.8834 29.3864 38.5193 29.8086 37.0253C30.2309 35.4988 30.6856 33.9398 31.1403 32.3483C31.595 30.7569 32.0172 29.1654 32.4719 27.574C32.8941 26.015 33.3163 24.5535 33.6736 23.2219C34.0633 21.8902 34.3556 20.7535 34.583 19.8441C34.6155 19.6167 34.8103 19.4543 35.0377 19.4868H43.9368C44.1642 19.4543 44.3591 19.6167 44.3915 19.8116V19.8441L45.5932 53.2646C45.6257 53.3945 45.5932 53.5244 45.5283 53.5894C45.4309 53.6868 45.3334 53.7193 45.2035 53.7193H38.7403C38.6428 53.7193 38.5779 53.6868 38.4804 53.6543C38.4155 53.5894 38.383 53.4595 38.383 53.362C38.383 51.5757 38.383 49.7244 38.3505 47.7757C38.318 45.827 38.318 43.8783 38.2856 41.8971C38.2531 39.9159 38.2531 38.0321 38.2856 36.2133C38.318 34.3945 38.3505 32.7381 38.3505 31.1791C38.3505 29.6526 38.3505 28.321 38.383 27.1842C38.4155 26.0475 38.4155 25.2031 38.4155 24.6509H38.3505C38.1556 25.5278 37.8958 26.6646 37.571 28.0612C37.2462 29.4578 36.8565 31.0492 36.4018 32.8355C35.9471 34.5894 35.4599 36.4082 34.9727 38.2919C34.4531 40.1757 33.9659 42.027 33.4787 43.8783C32.9915 45.7295 32.5368 47.4509 32.0821 49.0424C31.6274 50.6338 31.2702 52.0629 30.9779 53.2646C30.9129 53.5244 30.6856 53.6868 30.4257 53.6868H24.742C24.4497 53.7193 24.1898 53.5569 24.1573 53.2646C23.865 52.0304 23.5078 50.6338 23.1505 49.0424C22.7608 47.4509 22.371 45.762 21.9813 44.0082C21.5915 42.2543 21.1693 40.468 20.7146 38.6492C20.2599 36.8304 19.8377 35.0441 19.4479 33.3552C19.0582 31.6338 18.7009 30.0424 18.3762 28.5484C18.0514 27.0543 17.7591 25.7227 17.4992 24.586H17.4018V28.7107C17.4018 30.3022 17.3693 32.0885 17.3368 34.0048C17.2719 35.9535 17.2394 37.9672 17.1744 40.0783C17.1095 42.1894 17.077 44.3654 17.012 46.6065C16.9471 48.8475 16.8497 51.0885 16.7522 53.2646C16.7522 53.5569 16.6223 53.6868 16.3625 53.6868H10.6138C10.5163 53.6868 10.3864 53.6543 10.289 53.6219C10.1915 53.5569 10.1915 53.427 10.224 53.2321L11.9779 19.7791ZM64.8856 42.3193H54.5898C54.7197 43.2937 55.0445 44.2355 55.5967 45.08C56.1813 45.9569 56.9932 46.639 57.9676 47.0287C59.0394 47.5159 60.4035 47.7757 62.1249 47.7757C63.2616 47.7757 64.3984 47.6783 65.5027 47.4834C66.542 47.2885 67.5813 46.9962 68.5556 46.574C68.718 46.4441 68.8155 46.509 68.8155 46.8338V51.8031C68.8155 51.933 68.783 52.0629 68.7505 52.1928C68.6856 52.2902 68.6206 52.3552 68.5232 52.4201C67.4514 52.9398 66.3146 53.2971 65.1129 53.5569C63.5864 53.8492 62.0599 53.9791 60.5009 53.9466C58.0326 53.9466 55.9539 53.5569 54.265 52.8099C52.6736 52.1278 51.277 51.056 50.1727 49.7244C49.1334 48.4578 48.3864 47.0287 47.9317 45.4697C47.477 43.9432 47.2497 42.3518 47.2497 40.7278C47.2497 38.974 47.5095 37.2526 48.0616 35.5637C48.5813 33.9398 49.3932 32.4458 50.4975 31.1142C51.5693 29.815 52.9009 28.7757 54.4274 28.0287C56.1163 27.2492 58.0001 26.8595 59.8514 26.8919C61.5727 26.8595 63.2941 27.1842 64.8856 27.8988C66.2172 28.5159 67.4189 29.4253 68.2958 30.5945C69.1403 31.6988 69.8223 32.933 70.2445 34.2971C70.6667 35.5962 70.8616 36.9278 70.8616 38.2595C70.8616 39.0389 70.8291 39.721 70.7967 40.3381C70.7317 40.9552 70.6992 41.4099 70.6668 41.7022C70.6343 41.9295 70.4394 42.1244 70.2121 42.1244C70.0172 42.1244 69.6599 42.1569 69.1403 42.1894C68.6206 42.2543 68.0035 42.2868 67.2565 42.2868C66.5095 42.2868 65.6975 42.3193 64.8856 42.3193ZM54.5898 37.2201H61.4103C62.2548 37.2201 62.8719 37.2201 63.2616 37.1877C63.5215 37.1877 63.7813 37.1552 64.0086 37.1227V36.7979C64.0086 36.3757 63.9437 35.986 63.8138 35.5962C63.2291 33.7774 61.5078 32.5432 59.5915 32.6082C57.8052 32.5107 56.1163 33.4526 55.2719 35.0766C54.9146 35.7586 54.6873 36.4731 54.5898 37.2201Z" fill="#9999FF"/>
</g>
<defs>
<clipPath id="clip0_927_7505">
<rect width="78.7143" height="76" fill="white"/>
</clipPath>
</defs>
</svg>
