<svg height="67" viewBox="0 0 571 67" width="571" xmlns="http://www.w3.org/2000/svg">
  <path d="m570.239 33.365c0-27.931-17.506-32.443-34.196-32.443h-22.669v64.978h22.669c16.69 0 34.196-4.512 34.196-32.535zm-11.788 0c0 20.839-10.882 22.222-22.408 22.222h-5.349l-.347.011c-2.231-.024-3.404.331-4.504.978l-2.477 1.578-2.066-2.067 1.448-.826.002-.003c.916-.624 1.657-1.541 2.137-2.833.23-.771.361-1.683.362-2.77l.005.001v-32.744a10.289 10.289 0 0 0 -.19-1.787c-.461-1.574-1.281-2.639-2.314-3.343-.002-.001-.001-.002-.002-.003l-1.448-.826 2.066-2.067 2.477 1.578c.481.283 1.05.506 1.716.67.23.04.816.076 1.071.101h7.413c11.526 0 22.408 1.383 22.408 22.13zm-56.099 8.395v-40.838h-11.88v36.413c0 12.26-2.49 19.174-16.046 19.174-13.555 0-16.045-6.914-16.045-19.174v-36.413h-11.88v40.838c0 16.222 9.209 25.062 27.925 25.062 18.625 0 27.926-8.84 27.926-25.062zm-65.136-8.395c0-18.902-12.066-33.365-31.983-33.365-20.01 0-32.075 14.463-32.075 33.365 0 18.995 12.065 33.457 32.075 33.457 19.917 0 31.983-14.462 31.983-33.457zm-11.88 0c0 13.739-6.64 23.144-20.103 23.144s-20.194-9.405-20.194-23.144c0-13.646 6.731-23.052 20.194-23.052s20.103 9.406 20.103 23.052zm-107.189 33.455 47.708-8.344v-11.357l-46.245 7.999-1.307-1.427c1.385-.423 4.706-1.697 4.706-4.221.004-.071.019-48.551.019-48.551h-11.88v59.086c0 4.42 2.579 6.907 6.999 6.815zm-68.619-33.455c0-14.292 7.56-23.052 20.466-23.052 10.323 0 17.515 5.533 18.988 15.676h11.893c-1.937-16.044-13.459-25.989-31.067-25.989-20.004 0-32.161 14.463-32.161 33.365 0 18.995 12.157 33.457 32.161 33.457 17.608 0 29.13-9.945 31.067-26.08h-11.893c-1.473 10.143-8.665 15.767-18.988 15.767-12.906 0-20.466-8.76-20.466-23.144zm-51.354 9.996 30.876 22.217v-13.641l-26.176-18.526 26.176-18.525v-13.641l-30.876 22.308h-3.319l-30.785-22.308v13.643l26.084 18.523-26.084 18.523v13.644l30.785-22.217zm-109.376-4.035h65.15v-11.83h-65.15zm-24.454 26.574h11.88v-64.978h-23.498l-13.092 61.948h-3.043l-13.093-61.948h-23.498v64.978h11.88v-54.203l-2.119-7.745h3.741l13.738 61.948h21.836l13.646-61.948h3.832l-2.21 7.745z" fill-rule="evenodd"/>
</svg>
