<svg width="64" height="64" viewBox="0 0 64 64" fill="none" xmlns="http://www.w3.org/2000/svg">
<g id="Skill Card Icon 45">
<g clip-path="url(#clip0_987_815)">
<path id="Rectangle 3816" d="M-0.000244141 63.9995L-0.000244141 31.9995L21.6772 22.1931L31.9998 -0.000449419H63.9998V31.9995V63.9995H31.9998H-0.000244141Z" fill="#9747FF"/>
<rect id="Rectangle 3817" y="64" width="64" height="64" rx="32" transform="rotate(-90 0 64)" fill="#9747FF"/>
<path id="Arrow 5" d="M1.78564 1.7854V8.53686H8.53711V1.7854H1.78564ZM28.7582 28.7579C27.036 30.4801 27.036 33.2724 28.7582 34.9947C30.4804 36.7169 33.2727 36.7169 34.9949 34.9947C36.7172 33.2724 36.7172 30.4801 34.9949 28.7579C33.2727 27.0357 30.4804 27.0357 28.7582 28.7579ZM4.57668 5.74583L31.2919 32.461L32.4613 31.2916L5.74607 4.57644L4.57668 5.74583Z" fill="#2D2D2D"/>
</g>
</g>
<defs>
<clipPath id="clip0_987_815">
<rect width="64" height="64" rx="2" fill="white"/>
</clipPath>
</defs>
</svg>
