<svg width="64" height="64" viewBox="0 0 64 64" fill="none" xmlns="http://www.w3.org/2000/svg">
<g id="Skill Card Icon 2">
<g clip-path="url(#clip0_987_781)">
<path id="Rectangle 3816" d="M64 -0.000488281V31.9995L42.3226 41.8059L32 63.9995H-2.76566e-05L-2.76566e-05 31.9995V-0.000488281L32 -0.000488281L64 -0.000488281Z" fill="#76BED0"/>
<rect id="Rectangle 3817" width="64" height="64" rx="32" fill="#76BED0"/>
<path id="Arrow 5" d="M29.9139 29.9139C28.1916 31.6361 28.1916 34.4284 29.9139 36.1506C31.6361 37.8728 34.4284 37.8728 36.1506 36.1506C37.8728 34.4284 37.8728 31.6361 36.1506 29.9139C34.4284 28.1916 31.6361 28.1916 29.9139 29.9139ZM63.1231 63.1231V56.3716H56.3717V63.1231H63.1231ZM32.4475 33.6169L59.1627 60.3321L60.3321 59.1627L33.6169 32.4475L32.4475 33.6169Z" fill="#2D2D2D"/>
</g>
</g>
<defs>
<clipPath id="clip0_987_781">
<rect width="64" height="64" rx="2" fill="white"/>
</clipPath>
</defs>
</svg>
