<svg width="67" height="68" viewBox="0 0 67 68" fill="none" xmlns="http://www.w3.org/2000/svg">
<g id="Skills Card Icon 4">
<path id="Rectangle 19" d="M3 36C3 18.3269 17.3269 4 35 4V4C52.6731 4 67 18.3269 67 36V68H3V36Z" fill="#F3AFA8"/>
<path id="Arrow 5" d="M1.80644 2.10234C0.0842125 3.82456 0.0842125 6.61684 1.80644 8.33907C3.52866 10.0613 6.32094 10.0613 8.04317 8.33907C9.7654 6.61684 9.7654 3.82456 8.04317 2.10234C6.32094 0.380111 3.52866 0.380111 1.80644 2.10234ZM35.0157 35.3116L35.0157 28.5601L28.2642 28.5601L28.2642 35.3116L35.0157 35.3116ZM4.34011 5.8054L31.0553 32.5205L32.2246 31.3512L5.5095 4.63601L4.34011 5.8054Z" fill="#2D2D2D"/>
</g>
</svg>
