<svg width="64" height="64" viewBox="0 0 64 64" fill="none" xmlns="http://www.w3.org/2000/svg">
<g id="Skills Card Icon 86" clip-path="url(#clip0_987_803)">
<path id="Rectangle 21" d="M64.2798 -0.0556641V-0.0556641C64.1722 35.2904 35.4313 63.8568 0.0851958 63.7492V63.7492L0.280052 -0.25052L64.2798 -0.0556641Z" fill="#F3E517"/>
<path id="Arrow 5" d="M29.0445 28.5362C27.317 30.2532 27.3085 33.0455 29.0255 34.7729C30.7424 36.5004 33.5347 36.5089 35.2622 34.7919C36.9896 33.0749 36.9981 30.2827 35.2812 28.5552C33.5642 26.8277 30.7719 26.8192 29.0445 28.5362ZM62.1525 61.8464L62.173 55.095L55.4216 55.0744L55.401 61.8259L62.1525 61.8464ZM31.5668 32.247L58.2006 59.0433L59.3735 57.8775L32.7398 31.0812L31.5668 32.247Z" fill="#2D2D2D"/>
</g>
<defs>
<clipPath id="clip0_987_803">
<rect width="64" height="64" fill="white"/>
</clipPath>
</defs>
</svg>
