<svg width="65" height="65" viewBox="0 0 65 65" fill="none" xmlns="http://www.w3.org/2000/svg">
<g id="Skills Card Icon 7">
<g id="Rectangle 21">
<path d="M64.8176 64.1533V64.1533C29.4714 64.1533 0.817598 35.4996 0.817601 0.153343V0.153343L64.8176 0.153348L64.8176 64.1533Z" fill="#FF6250"/>
</g>
<path id="Arrow 5" d="M36.1184 29.0052C34.3961 27.2829 31.6039 27.2829 29.8816 29.0052C28.1594 30.7274 28.1594 33.5197 29.8816 35.2419C31.6039 36.9641 34.3961 36.9641 36.1184 35.2419C37.8406 33.5197 37.8406 30.7274 36.1184 29.0052ZM2.90908 62.2144L9.66055 62.2144L9.66055 55.463L2.90909 55.463L2.90908 62.2144ZM32.4153 31.5388L5.70012 58.254L6.86951 59.4234L33.5847 32.7082L32.4153 31.5388Z" fill="#2D2D2D"/>
</g>
</svg>
