<?xml version="1.0" standalone="no"?>
<svg xmlns:xlink="http://www.w3.org/1999/xlink" id="wave" style="transform:rotate(0deg); transition: 0.3s" viewBox="0 0 1440 250" version="1.1" xmlns="http://www.w3.org/2000/svg"><defs><linearGradient id="sw-gradient-0" x1="0" x2="0" y1="1" y2="0"><stop stop-color="rgba(255, 255, 255, 1)" offset="0%"/><stop stop-color="rgba(255, 255, 255, 1)" offset="100%"/></linearGradient></defs><path style="transform:translate(0, 0px); opacity:1" fill="url(#sw-gradient-0)" d="M0,200L80,191.7C160,183,320,167,480,170.8C640,175,800,200,960,183.3C1120,167,1280,108,1440,91.7C1600,75,1760,100,1920,100C2080,100,2240,75,2400,91.7C2560,108,2720,167,2880,183.3C3040,200,3200,175,3360,141.7C3520,108,3680,67,3840,66.7C4000,67,4160,108,4320,112.5C4480,117,4640,83,4800,79.2C4960,75,5120,100,5280,120.8C5440,142,5600,158,5760,158.3C5920,158,6080,142,6240,116.7C6400,92,6560,58,6720,37.5C6880,17,7040,8,7200,4.2C7360,0,7520,0,7680,4.2C7840,8,8000,17,8160,50C8320,83,8480,142,8640,145.8C8800,150,8960,100,9120,100C9280,100,9440,150,9600,170.8C9760,192,9920,183,10080,166.7C10240,150,10400,125,10560,104.2C10720,83,10880,67,11040,50C11200,33,11360,17,11440,8.3L11520,0L11520,250L11440,250C11360,250,11200,250,11040,250C10880,250,10720,250,10560,250C10400,250,10240,250,10080,250C9920,250,9760,250,9600,250C9440,250,9280,250,9120,250C8960,250,8800,250,8640,250C8480,250,8320,250,8160,250C8000,250,7840,250,7680,250C7520,250,7360,250,7200,250C7040,250,6880,250,6720,250C6560,250,6400,250,6240,250C6080,250,5920,250,5760,250C5600,250,5440,250,5280,250C5120,250,4960,250,4800,250C4640,250,4480,250,4320,250C4160,250,4000,250,3840,250C3680,250,3520,250,3360,250C3200,250,3040,250,2880,250C2720,250,2560,250,2400,250C2240,250,2080,250,1920,250C1760,250,1600,250,1440,250C1280,250,1120,250,960,250C800,250,640,250,480,250C320,250,160,250,80,250L0,250Z"/></svg>